Coordinates
version=1
nRows=27
nColumns=12
inDegrees=yes

Units are S.I. units (second, meters, Newtons, ...)
Angles are in degrees

endheader
time	SC_y	SC_z	SC_x	AC_y	AC_z	AC_x	GH_y	GH_z	GH_yy	EL_x	PS_y
       0.0              -40.59          6.711          15.67          61.78         -11.23          13.79         -47.91           86.7          113.6          114.0          157.1
   0.01794              -40.58          6.716          15.68          61.78         -11.23          13.79         -47.91           86.7          113.6          114.0          157.1
   0.03589              -40.58           6.72          15.68          61.78         -11.23          13.78         -47.91          86.69          113.6          114.0          157.1
   0.05383              -40.58          6.725          15.69          61.77         -11.23          13.78         -47.91          86.68          113.5          114.0          157.1
   0.07178              -40.57           6.73          15.69          61.77         -11.23          13.78         -47.91          86.68          113.5          114.0          157.1
   0.08972              -40.57          6.735           15.7          61.77         -11.23          13.77         -47.91          86.67          113.5          114.0          157.1
    0.1077              -40.56          6.741          15.71          61.77         -11.23          13.77         -47.91          86.66          113.4          114.0          157.1
    0.1256              -40.56          6.747          15.71          61.76         -11.23          13.76         -47.91          86.65          113.4          114.0          157.1
    0.1436              -40.55          6.754          15.72          61.76         -11.23          13.76         -47.91          86.64          113.3          114.0          157.1
    0.1615              -40.54          6.761          15.73          61.76         -11.23          13.75         -47.91          86.63          113.3          114.0          157.1
    0.1794              -40.54          6.768          15.74          61.75         -11.23          13.75         -47.91          86.62          113.2          114.0          157.1
    0.1974              -40.53          6.776          15.75          61.75         -11.23          13.74         -47.92          86.61          113.2          114.0          157.1
    0.2153              -40.52          6.785          15.76          61.74         -11.23          13.73         -47.92          86.59          113.1          114.0          157.1
    0.2333              -40.51          6.795          15.77          61.74         -11.23          13.73         -47.92          86.58          113.1          114.0          157.1
    0.2512               -40.5          6.805          15.79          61.73         -11.23          13.72         -47.92          86.56          113.0          114.0          157.1
    0.2692              -40.49          6.816           15.8          61.73         -11.23          13.71         -47.92          86.55          112.9          114.0          157.1
    0.2871              -40.48          6.828          15.81          61.72         -11.23           13.7         -47.92          86.53          112.9          114.1          157.1
    0.3051              -40.47          6.841          15.83          61.71         -11.23          13.69         -47.92          86.51          112.8          114.1          157.1
     0.323              -40.46          6.855          15.85          61.71         -11.23          13.68         -47.92          86.49          112.7          114.1          157.1
    0.3409              -40.44          6.871          15.87           61.7         -11.22          13.67         -47.93          86.46          112.6          114.1          157.1
    0.3589              -40.43          6.888          15.89          61.69         -11.22          13.65         -47.93          86.44          112.5          114.1          157.1
    0.3768              -40.41          6.907          15.91          61.68         -11.22          13.64         -47.93          86.41          112.3          114.1          157.1
    0.3948              -40.39          6.928          15.94          61.67         -11.22          13.62         -47.93          86.38          112.2          114.2          157.1
    0.4127              -40.37          6.952          15.97          61.66         -11.22           13.6         -47.94          86.34          112.0          114.2          157.1
    0.4307              -40.35          6.978           16.0          61.65         -11.22          13.58         -47.94           86.3          111.9          114.2          157.1
    0.4486              -40.32          7.006          16.04          61.63         -11.22          13.56         -47.94          86.26          111.7          114.2          157.1
    0.4665              -40.29          7.039          16.08          61.61         -11.22          13.54         -47.95          86.21          111.5          114.3          157.1
